# xmcd
#
# Track frame offsets: 
#        150
#        11125
#        18063
#        23575
#        30775
#        41368
#        59373
#        61395
#        69465
#        73475
#        77023
#        85748
#        110058
#        123028
#        142740
#        153220
#        156263
#        172210
#        182448
#
# Disc length: 2578 seconds
#
# Revision: 8
# Processed by: cddbd v1.5.2PL0 Copyright (c) Steve Scherf et al.
# Submitted via: ExactAudioCopyFreeDBPlugin 1.0
#
DISCID=e80a1013
DTITLE=Willie Nelson - Red Headed Stranger
DYEAR=1975
DGENRE=Country
TTITLE0=Time of the Preacher
TTITLE1=I Couldn't Believe It Was True
TTITLE2=Time of the Preacher Theme
TTITLE3=Medley: Blue Rock Montana, Red Headed Stranger
TTITLE4=Blue Eyes Crying in the Rain
TTITLE5=Red Headed Stranger
TTITLE6=Time of the Preacher Theme
TTITLE7=Just as I Am
TTITLE8=Denver
TTITLE9=O'er the Waves
TTITLE10=Down Yonder
TTITLE11=Can I Sleep in Your Arms
TTITLE12=Remember Me
TTITLE13=Hands on the Wheel
TTITLE14=Bandera
TTITLE15=Bach Minuet in G
TTITLE16=Can't Help It (If I'm Still in Love With You)
TTITLE17=A Maiden's Prayer
TTITLE18=Bonapartes's Retreat
EXTD=YEAR: 2000
EXTT0=
EXTT1=
EXTT2=
EXTT3=
EXTT4=
EXTT5=
EXTT6=
EXTT7=
EXTT8=
EXTT9=
EXTT10=
EXTT11=
EXTT12=
EXTT13=
EXTT14=
EXTT15=
EXTT16=
EXTT17=
EXTT18=
PLAYORDER=
